# xmcd
#
# Track frame offsets:
#	150
#	11818
#	20919
#	32266
#	42380
#	53516
#	65604
#	77764
#	92986
#	105118
#	116791
#	132317
#	143291
#	152921
#	164211
#
# Disc length: 2345 seconds
#
# Revision: 0
# Processed by: cddbd v1.4PL0 Copyright (c) Steve Scherf et al.
# Submitted via: dBpowerAMP V4.0
#
DISCID=c409270f
DTITLE=Os Atuais - A 150 Por Minuto
DYEAR=1900
DGENRE=
TTITLE0=A 150 Por Minuto
TTITLE1=Moreninha do Carrão
TTITLE2=Saudade Dela
TTITLE3=Abre o Olho Zé
TTITLE4=Professora de Inglês
TTITLE5=Toque de Mágica
TTITLE6=Dia dos Namorados
TTITLE7=Eu Tive um Amor
TTITLE8=Canção de Amor
TTITLE9=Cara de Apaixonado
TTITLE10=Vem Morar Comigo
TTITLE11=Como é Que é
TTITLE12=Fotografia
TTITLE13=Espere por Mim
TTITLE14=A 150 Por Minuto
EXTD=
EXTT0=
EXTT1=
EXTT2=
EXTT3=
EXTT4=
EXTT5=
EXTT6=
EXTT7=
EXTT8=
EXTT9=
EXTT10=
EXTT11=
EXTT12=
EXTT13=
EXTT14=
PLAYORDER=
